<?xml version="1.0" standalone="no"?>
<!DOCTYPE svg PUBLIC "-//W3C//DTD SVG 20010904//EN"
 "http://www.w3.org/TR/2001/REC-SVG-20010904/DTD/svg10.dtd">
<svg version="1.0" xmlns="http://www.w3.org/2000/svg"
 width="1280.000000pt" height="1280.000000pt" viewBox="0 0 1280.000000 1280.000000"
 preserveAspectRatio="xMidYMid meet">
<g transform="translate(0.000000,1280.000000) scale(0.100000,-0.100000)"
fill="#000000" stroke="none">
<path d="M6122 11644 c-150 -603 -270 -1099 -268 -1103 3 -4 58 -1 123 7 78
10 221 15 423 15 202 0 345 -5 423 -15 65 -8 120 -11 123 -7 5 9 -538 2199
-546 2199 -3 0 -128 -493 -278 -1096z"/>
<path d="M4440 12388 c0 -25 5 -103 10 -174 11 -129 96 -1347 126 -1779 8
-126 17 -240 20 -252 4 -22 5 -21 82 14 226 104 559 215 797 267 66 15 130 29
143 31 12 3 22 9 22 14 0 9 -1174 1898 -1191 1916 -5 5 -9 -10 -9 -37z"/>
<path d="M7760 11481 c-327 -525 -596 -960 -598 -967 -2 -7 7 -16 20 -18 13
-3 77 -17 143 -32 238 -52 571 -163 797 -267 77 -35 78 -36 82 -14 3 12 12
126 20 252 21 306 113 1610 127 1800 6 83 10 161 8 175 -3 19 -139 -192 -599
-929z"/>
<path d="M2673 11517 c10 -28 748 -1850 799 -1975 l50 -122 70 62 c213 191
485 390 716 523 56 33 102 62 102 66 0 7 -1717 1452 -1733 1458 -6 2 -8 -3 -4
-12z"/>
<path d="M9255 10805 c-473 -398 -861 -727 -862 -732 -2 -4 43 -35 99 -68 249
-144 489 -319 716 -522 l69 -63 51 123 c46 113 787 1941 799 1973 3 8 1 14 -3
13 -5 0 -396 -326 -869 -724z"/>
<path d="M6095 10219 c-751 -57 -1490 -350 -2093 -831 -163 -130 -459 -427
-588 -588 -424 -532 -695 -1145 -798 -1802 -34 -217 -41 -320 -41 -598 0 -278
7 -381 41 -598 192 -1225 985 -2299 2099 -2841 403 -197 778 -307 1250 -367
198 -26 672 -26 870 0 472 60 847 170 1250 367 595 289 1121 748 1495 1304
288 427 494 931 584 1425 49 272 60 396 61 705 0 284 -7 382 -41 603 -103 657
-374 1270 -798 1802 -128 160 -426 458 -586 586 -773 615 -1720 907 -2705 833z"/>
<path d="M1272 10122 c5 -15 1451 -1732 1457 -1732 4 0 33 46 66 102 144 249
319 489 523 716 l62 70 -72 30 c-190 78 -2030 822 -2035 822 -2 0 -3 -4 -1 -8z"/>
<path d="M10472 9706 c-573 -233 -1044 -425 -1046 -427 -2 -2 34 -47 81 -99
177 -199 367 -462 498 -687 33 -57 62 -103 66 -103 6 0 1452 1717 1457 1732 2
4 0 8 -5 7 -4 0 -477 -191 -1051 -423z"/>
<path d="M376 8351 c5 -4 250 -158 544 -341 294 -184 721 -450 948 -592 228
-142 418 -258 423 -258 5 0 11 10 14 23 2 12 16 76 31 142 52 238 163 571 267
797 35 77 36 78 14 83 -12 2 -254 20 -537 40 -283 19 -767 53 -1075 75 -597
42 -644 45 -629 31z"/>
<path d="M11910 8329 c-212 -15 -682 -49 -1045 -74 -363 -25 -670 -48 -682
-50 -21 -5 -20 -8 28 -117 128 -288 196 -505 284 -905 3 -13 9 -23 14 -23 5 0
195 116 423 258 227 142 654 408 948 592 294 183 539 337 545 341 14 14 -97 9
-515 -22z"/>
<path d="M1148 6677 c-599 -149 -1088 -274 -1088 -277 0 -8 2190 -551 2199
-545 4 2 1 55 -7 117 -19 156 -21 651 -3 828 16 154 16 144 -1 147 -7 1 -502
-121 -1100 -270z"/>
<path d="M10539 6946 c-3 -3 1 -58 9 -123 20 -161 20 -685 0 -846 -8 -65 -11
-120 -7 -123 9 -5 2199 538 2199 546 0 3 -487 127 -1082 275 -596 148 -1090
270 -1098 272 -9 2 -18 2 -21 -1z"/>
<path d="M2105 5531 c-93 -59 -523 -328 -955 -597 -658 -410 -780 -489 -755
-492 17 -1 413 24 880 58 468 33 956 67 1085 76 129 8 245 17 257 20 21 4 20
7 -28 116 -128 288 -196 505 -284 906 -3 12 -11 22 -18 21 -6 0 -88 -49 -182
-108z"/>
<path d="M10495 5618 c-2 -13 -16 -75 -30 -138 -55 -247 -147 -527 -254 -768
-48 -109 -49 -112 -28 -116 12 -3 128 -12 257 -20 129 -9 618 -43 1085 -76
468 -34 864 -59 880 -58 26 3 -9 27 -250 177 -154 96 -585 365 -958 598 -373
233 -683 423 -688 423 -5 0 -11 -10 -14 -22z"/>
<path d="M2679 4358 c-255 -298 -1410 -1680 -1407 -1684 4 -3 2063 826 2095
844 7 5 -28 51 -93 125 -185 212 -360 455 -484 675 -29 50 -56 92 -60 92 -3 0
-26 -24 -51 -52z"/>
<path d="M10010 4318 c-122 -217 -303 -469 -483 -673 -66 -75 -101 -122 -94
-127 32 -18 2091 -847 2095 -844 2 3 -303 371 -679 818 -795 946 -771 918
-779 918 -4 0 -31 -42 -60 -92z"/>
<path d="M3517 3368 c-207 -505 -846 -2092 -843 -2095 5 -6 1736 1448 1736
1457 0 4 -42 31 -92 60 -249 141 -536 353 -769 567 -19 18 -28 21 -32 11z"/>
<path d="M9155 3273 c-207 -182 -485 -381 -692 -495 -40 -22 -73 -43 -73 -47
0 -10 1730 -1464 1736 -1458 4 3 -825 2059 -843 2091 -6 10 -39 -13 -128 -91z"/>
<path d="M4596 2617 c-3 -12 -12 -125 -20 -252 -22 -322 -113 -1619 -127
-1800 -6 -82 -10 -161 -8 -174 3 -19 144 199 599 929 327 525 596 959 598 966
2 8 -7 16 -20 19 -13 2 -66 14 -118 25 -250 54 -548 152 -791 260 -106 48
-109 48 -113 27z"/>
<path d="M8120 2603 c-240 -110 -562 -217 -820 -273 -52 -11 -105 -23 -118
-25 -13 -3 -22 -11 -20 -19 2 -7 271 -441 598 -966 455 -730 596 -948 599
-929 2 13 -2 92 -8 174 -15 202 -107 1511 -127 1805 -8 129 -19 242 -22 251
-6 15 -16 12 -82 -18z"/>
<path d="M5854 2259 c-5 -9 538 -2199 546 -2199 8 0 551 2190 546 2199 -3 4
-58 1 -123 -7 -78 -10 -221 -15 -423 -15 -202 0 -345 5 -423 15 -65 8 -120 11
-123 7z"/>
</g>
</svg>
